<svg xmlns="http://www.w3.org/2000/svg" viewBox="0 0 900 610" role="img" aria-label="Live harmonic spectrum interface"><rect width="900" height="610" fill="#17222e"/><text x="28" y="46" fill="#f6f2e9" font-family="Arial" font-weight="700" font-size="27">Harmonics analysis</text><text x="28" y="70" fill="#aebec8" font-family="Arial" font-size="13">A live sketch of the note, colour, and harmonic shape in your voice.</text><rect x="28" y="100" width="255" height="466" rx="2" fill="#223445" stroke="#527085" stroke-width="2"/><text x="47" y="132" fill="#b2c0c6" font-family="Arial" font-size="12" font-weight="700">YOU ARE SINGING</text><text x="46" y="194" fill="#e1a347" font-family="Arial" font-size="61" font-weight="700">A3</text><text x="47" y="219" fill="#f2eee6" font-family="Arial" font-size="14">A3 · 220 Hz · clear pitch</text><text x="47" y="240" fill="#58d7ff" font-family="Arial" font-size="13">+4 cents · nearly in tune</text><path d="M47 267H264" stroke="#527085"/><text x="47" y="294" fill="#b2c0c6" font-family="Arial" font-size="12" font-weight="700">HARMONIC FAMILY</text><text x="47" y="318" fill="#f2eee6" font-family="Arial" font-size="14">H1 · H2 · H3 · H4 · H5 · H6</text><text x="47" y="354" fill="#b2c0c6" font-family="Arial" font-size="12" font-weight="700">VOICE COLOUR</text><rect x="47" y="370" width="217" height="57" fill="#0b141c"/><path d="M55 415 L76 400 L99 407 L120 382 L141 411 L162 390 L183 403 L204 378 L225 405 L254 397" fill="none" stroke="#58d7ff" stroke-width="3"/><text x="47" y="447" fill="#e1a347" font-family="Arial" font-size="13" font-weight="700">Balanced</text><path d="M47 470H264" stroke="#527085"/><text x="47" y="498" fill="#b2c0c6" font-family="Arial" font-size="12" font-weight="700">QUIET-ROOM FILTER</text><rect x="47" y="512" width="123" height="31" rx="2" fill="#386b4b"/><text x="60" y="533" fill="white" font-family="Arial" font-size="12" font-weight="700">Set quiet baseline</text><text x="311" y="121" fill="#d9b36b" font-family="Arial" font-size="18" font-weight="700">Live spectrum</text><text x="311" y="145" fill="#76dfe0" font-family="Arial" font-size="13" font-weight="700">Listening · hold a steady vowel</text><rect x="311" y="171" width="558" height="315" fill="#0b141c" stroke="#1b303c"/><g stroke="#1b303c" stroke-width="1"><path d="M311 234H869M311 297H869M311 360H869M311 423H869"/><path d="M367 171V486M478 171V486M590 171V486M702 171V486M814 171V486"/></g><g stroke="#f6b73c" stroke-width="2" stroke-dasharray="5 5" opacity=".9"><path d="M336 171V486"/><path d="M361 171V486"/><path d="M386 171V486"/><path d="M411 171V486"/><path d="M436 171V486"/><path d="M461 171V486"/></g><g fill="#f6b73c" font-family="Arial" font-size="11" font-weight="700"><text x="328" y="191">H1</text><text x="353" y="191">H2</text><text x="378" y="191">H3</text><text x="403" y="191">H4</text><text x="428" y="191">H5</text><text x="453" y="191">H6</text></g><path d="M312 463 L320 455 L327 460 L334 305 L341 440 L348 451 L356 226 L364 443 L371 460 L381 336 L390 448 L405 457 L418 274 L426 453 L446 459 L464 307 L473 456 L500 463 L518 383 L527 461 L554 464 L580 412 L590 460 L630 465 L670 435 L681 463 L720 467 L760 443 L775 465 L830 458 L869 465" fill="none" stroke="#58d7ff" stroke-width="3"/><g fill="#668da3" font-family="Arial" font-size="11"><text x="314" y="505">0 Hz</text><text x="454" y="505">1 kHz</text><text x="566" y="505">2 kHz</text><text x="678" y="505">3 kHz</text><text x="790" y="505">4 kHz</text></g><rect x="311" y="522" width="118" height="33" rx="2" fill="#b34848"/><text x="329" y="544" fill="white" font-family="Arial" font-size="12" font-weight="700">Record a take</text><rect x="440" y="522" width="145" height="33" rx="2" fill="#315f78"/><text x="454" y="544" fill="white" font-family="Arial" font-size="12" font-weight="700">Identify a sound file</text></svg>
